<svg xmlns="http://www.w3.org/2000/svg" xmlns:xlink="http://www.w3.org/1999/xlink" width="151.613" height="117.288" viewBox="0 0 151.613 117.288">
  <defs>
    <linearGradient id="linear-gradient" x1="0.5" x2="0.5" y2="1" gradientUnits="objectBoundingBox">
      <stop offset="0" stop-color="#2980b9"/>
      <stop offset="1" stop-color="#2c3e50"/>
    </linearGradient>
    <linearGradient id="linear-gradient-2" x1="0.5" x2="0.5" y2="1" gradientUnits="objectBoundingBox">
      <stop offset="0" stop-color="#fff"/>
      <stop offset="1" stop-color="gray"/>
    </linearGradient>
    <linearGradient id="linear-gradient-4" x1="0.5" x2="0.5" y2="1" gradientUnits="objectBoundingBox">
      <stop offset="0" stop-color="#e3486d"/>
      <stop offset="1" stop-color="#fabc75"/>
    </linearGradient>
  </defs>
  <g id="Group_4" data-name="Group 4" transform="translate(-901.154 -495)">
    <path id="Path_6" data-name="Path 6" d="M27.318,73.019a19.62,19.62,0,0,1-.146,2.34H8.3A5.484,5.484,0,0,0,9.908,79.1a5.259,5.259,0,0,0,3.56,1.264,4.4,4.4,0,0,0,4.34-2.527h8.876A11.38,11.38,0,0,1,24.2,82.474a12.067,12.067,0,0,1-4.438,3.23,14.85,14.85,0,0,1-6,1.17,15.091,15.091,0,0,1-7.12-1.638,11.909,11.909,0,0,1-4.877-4.681A13.983,13.983,0,0,1,.008,73.44a14.3,14.3,0,0,1,1.707-7.114,11.909,11.909,0,0,1,4.877-4.681,15.2,15.2,0,0,1,7.169-1.638A15.048,15.048,0,0,1,20.783,61.6a11.53,11.53,0,0,1,4.779,4.54A13.194,13.194,0,0,1,27.318,73.019Zm-8.534-2.106a4.041,4.041,0,0,0-1.463-3.276,5.527,5.527,0,0,0-3.658-1.217,5.52,5.52,0,0,0-3.56,1.17,5.182,5.182,0,0,0-1.756,3.323Zm32.977,8.8V86.5H47.518a10.757,10.757,0,0,1-7.071-2.106Q37.91,82.24,37.91,77.419V67.028H34.594V60.382H37.91V54.016H46.25v6.366h5.462v6.646H46.25V77.512a2.141,2.141,0,0,0,.585,1.685,2.942,2.942,0,0,0,1.951.515Zm7.864-6.319a15.28,15.28,0,0,1,1.561-7.068,11.473,11.473,0,0,1,10.436-6.319,10.683,10.683,0,0,1,5.023,1.123,8.461,8.461,0,0,1,3.365,2.949v-3.7h8.339V86.5H80.009V82.8a8.842,8.842,0,0,1-3.414,2.949,10.683,10.683,0,0,1-5.023,1.123,11.532,11.532,0,0,1-6.047-1.638,12.02,12.02,0,0,1-4.34-4.727A15.57,15.57,0,0,1,59.624,73.393Zm20.385.047a6.339,6.339,0,0,0-1.756-4.727,5.659,5.659,0,0,0-4.194-1.732,5.821,5.821,0,0,0-4.243,1.732,6.279,6.279,0,0,0-1.707,4.681,6.606,6.606,0,0,0,1.707,4.774A5.821,5.821,0,0,0,74.059,79.9a5.659,5.659,0,0,0,4.194-1.732A6.339,6.339,0,0,0,80.009,73.44ZM107.6,64.734a10.591,10.591,0,0,1,3.658-3.37,9.6,9.6,0,0,1,4.877-1.264v8.472h-2.292a7.141,7.141,0,0,0-4.682,1.311q-1.561,1.264-1.561,4.493V86.5H99.258V60.382H107.6Zm29.784,22.139a15.683,15.683,0,0,1-7.218-1.638,12.485,12.485,0,0,1-5.023-4.681,13.685,13.685,0,0,1-1.8-7.114,13.314,13.314,0,0,1,1.853-7.068,12.312,12.312,0,0,1,5.072-4.727,16.72,16.72,0,0,1,14.436,0,12.312,12.312,0,0,1,5.072,4.727,14.33,14.33,0,0,1-.049,14.182,12.337,12.337,0,0,1-5.121,4.681A15.682,15.682,0,0,1,137.381,86.873Zm0-6.927a5.462,5.462,0,0,0,4.048-1.685,6.474,6.474,0,0,0,1.707-4.821,6.587,6.587,0,0,0-1.658-4.821,5.305,5.305,0,0,0-4-1.685,5.363,5.363,0,0,0-4.048,1.685,6.608,6.608,0,0,0-1.609,4.821,6.839,6.839,0,0,0,1.561,4.821A5.306,5.306,0,0,0,137.381,79.946Z" transform="translate(901.146 525.415)" fill="url(#linear-gradient)"/>
    <g id="Group_1" data-name="Group 1" transform="translate(944 495)">
      <path id="Path_7" data-name="Path 7" d="M.435,21.274a3.942,3.942,0,0,1,3.942-3.942H22.771a3.942,3.942,0,1,1,0,7.883H4.377A3.942,3.942,0,0,1,.435,21.274Z" fill="#fff"/>
      <path id="Path_8" data-name="Path 8" d="M23.757,45.564a3.942,3.942,0,0,1-3.9-3.985l.224-20.3a3.942,3.942,0,0,1,7.883.087l-.224,20.3A3.942,3.942,0,0,1,23.757,45.564Z" fill="#fff"/>
      <path id="Path_9" data-name="Path 9" d="M1.155,24.04a3.942,3.942,0,0,1,0-5.574L18.465,1.155A3.942,3.942,0,0,1,24.04,6.729L6.729,24.04A3.942,3.942,0,0,1,1.155,24.04Z" fill="#fff"/>
      <path id="Path_10" data-name="Path 10" d="M20.96,45.3a3.942,3.942,0,0,1,0-5.574L38.271,22.419a3.942,3.942,0,0,1,5.574,5.574L26.535,45.3A3.942,3.942,0,0,1,20.96,45.3Z" fill="#fff"/>
      <path id="Path_11" data-name="Path 11" d="M10.777,33.957a3.942,3.942,0,0,1,0-5.574L21.011,18.149a3.942,3.942,0,0,1,5.574,5.574L16.352,33.957A3.942,3.942,0,0,1,10.777,33.957Z" fill="#fff"/>
    </g>
    <g id="Group_2" data-name="Group 2" transform="translate(936.961 495)">
      <path id="Path_12" data-name="Path 12" d="M.435,24.12a6.9,6.9,0,0,1,7.007-6.787h32.7a6.791,6.791,0,1,1,0,13.575H7.443A6.9,6.9,0,0,1,.435,24.12Z" transform="translate(0.338 12.513)" fill="url(#linear-gradient-2)"/>
      <path id="Path_13" data-name="Path 13" d="M26.789,65.913a6.894,6.894,0,0,1-6.93-6.862l.4-34.963a7.011,7.011,0,0,1,14.014.15l-.4,34.963A6.906,6.906,0,0,1,26.789,65.913Z" transform="translate(15.446 12.544)" fill="url(#linear-gradient-2)"/>
      <g id="Group_3" data-name="Group 3" transform="translate(0 0)">
        <path id="Path_14" data-name="Path 14" d="M2.052,41.4a6.638,6.638,0,0,1,0-9.6L32.828,1.988a7.169,7.169,0,0,1,9.91,0,6.637,6.637,0,0,1,0,9.6L11.963,41.4A7.169,7.169,0,0,1,2.052,41.4Z" transform="translate(0 0)" fill="url(#linear-gradient-4)"/>
        <path id="Path_15" data-name="Path 15" d="M21.858,62.66a6.637,6.637,0,0,1,0-9.6L52.633,23.253a7.169,7.169,0,0,1,9.91,0,6.638,6.638,0,0,1,0,9.6L31.768,62.66A7.169,7.169,0,0,1,21.858,62.66Z" transform="translate(15.404 15.352)" fill="url(#linear-gradient-4)"/>
        <path id="Path_16" data-name="Path 16" d="M11.675,46.2a6.638,6.638,0,0,1,0-9.6L29.868,18.982a7.169,7.169,0,0,1,9.91,0,6.637,6.637,0,0,1,0,9.6L21.585,46.2A7.169,7.169,0,0,1,11.675,46.2Z" transform="translate(7.484 12.269)" fill="url(#linear-gradient-4)"/>
      </g>
    </g>
  </g>
</svg>
